<?xml version="1.0" encoding="UTF-8"?>
<svg version="1.1" xmlns="http://www.w3.org/2000/svg" width="1080" height="1080">
<path d="M0 0 C356.4 0 712.8 0 1080 0 C1080 356.4 1080 712.8 1080 1080 C723.6 1080 367.2 1080 0 1080 C0 723.6 0 367.2 0 0 Z " fill="#FEFEFE" transform="translate(0,0)"/>
<path d="M0 0 C7.41927438 5.07518173 14.11168459 10.79134206 19.84765625 17.73046875 C21.98600445 20.21735829 24.28462175 22.49157891 26.62109375 24.79296875 C30.18851977 28.31741373 33.53126345 31.93070274 36.78515625 35.7421875 C38.92764775 38.13539609 41.19851823 40.36091421 43.49609375 42.60546875 C56.91807275 55.96625332 66.00595006 69.41051899 66.05859375 88.79296875 C66.06318604 89.80665527 66.06777832 90.8203418 66.07250977 91.86474609 C65.95934844 99.57317326 64.60230092 105.7616 61.6171875 112.83203125 C60.48397879 116.20054968 60.34328278 117.49756151 61.62109375 120.79296875 C63.22925094 122.98408293 64.82046158 124.96319426 66.62109375 126.98046875 C67.11802734 127.55144287 67.61496094 128.12241699 68.12695312 128.71069336 C69.61483284 130.41408702 71.11572017 132.10503293 72.62109375 133.79296875 C73.39453125 134.66695312 74.16796875 135.5409375 74.96484375 136.44140625 C79.45269114 141.46584409 84.02256418 146.41615814 88.58129883 151.3762207 C92.64539034 155.8038086 96.6474527 160.28419553 100.62109375 164.79296875 C104.50498031 163.21113035 107.12275437 160.56487022 110.015625 157.62890625 C110.52606857 157.11800446 111.03651215 156.60710266 111.56242371 156.08071899 C112.64140432 154.99872283 113.71795899 153.91430276 114.79223633 152.82763672 C116.4125117 151.18928599 118.04046307 149.55889938 119.66992188 147.9296875 C124.65426208 142.92861394 129.61693803 137.92308452 134.15234375 132.50439453 C135.62109375 130.79296875 135.62109375 130.79296875 137.2109375 129.27294922 C138.90443236 127.68695445 138.90443236 127.68695445 140.62109375 124.79296875 C140.31361511 121.63743041 139.83151602 119.27419539 138.93359375 116.29296875 C134.66262961 99.45780965 134.3786329 81.80065907 143.02075195 66.32958984 C147.00168261 59.75633187 152.27589869 54.53955407 157.6875 49.16015625 C158.76929981 48.07310471 159.85058332 46.98553915 160.93138123 45.89749146 C163.18831564 43.63021201 165.45247201 41.37047016 167.72192383 39.11572266 C170.59918319 36.25560372 173.45565844 33.37570677 176.30668736 30.48946953 C178.53284105 28.24112483 180.77082952 26.00484739 183.01222038 23.77170181 C184.06875138 22.71597924 185.12156474 21.65651996 186.17019844 20.59295273 C198.58349287 8.03014327 213.40676164 -2.24401621 231.71289062 -2.39257812 C232.44572266 -2.39322266 233.17855469 -2.39386719 233.93359375 -2.39453125 C234.65482422 -2.40677734 235.37605469 -2.41902344 236.11914062 -2.43164062 C242.64096479 -2.44918813 248.88314424 -1.55416847 254.62109375 1.79296875 C247.85324621 9.77555815 240.93822959 17.55691454 233.49609375 24.91796875 C229.6560851 28.71619276 225.9500468 32.56556419 222.453125 36.68359375 C220.57762662 38.84301619 218.6327514 40.92839307 216.67504883 43.01318359 C212.40099428 47.58882443 208.25293973 52.25333806 204.37109375 57.16796875 C203.6234375 58.10382813 202.87578125 59.0396875 202.10546875 60.00390625 C200.36642581 62.7173524 200.36642581 62.7173524 200.70703125 65.85546875 C203.75480034 75.65000875 212.67343827 83.51447253 219.62109375 90.79296875 C220.23984375 91.45296875 220.85859375 92.11296875 221.49609375 92.79296875 C227.54265826 99.07209343 234.70182781 106.04568203 242.62109375 109.79296875 C257.28819315 109.48838042 277.05444901 83.51569721 286.51879883 73.77099609 C287.15712646 73.1208252 287.7954541 72.4706543 288.453125 71.80078125 C289.01749268 71.2195752 289.58186035 70.63836914 290.16333008 70.03955078 C291.62109375 68.79296875 291.62109375 68.79296875 293.62109375 68.79296875 C293.82476563 68.261875 294.0284375 67.73078125 294.23828125 67.18359375 C296.21614984 63.76422771 298.92436274 61.27958954 301.74609375 58.54296875 C302.30941406 57.98867188 302.87273437 57.434375 303.453125 56.86328125 C304.83795403 55.5019239 306.22892579 54.14682016 307.62109375 52.79296875 C312.98391366 58.15578866 312.11006102 68.70280414 312.12744141 75.83544922 C311.4748621 104.32445161 290.32170494 122.29057248 271.62304688 141.03125 C268.98756863 143.67652557 266.36296131 146.33229676 263.73828125 148.98828125 C262.04102355 150.69206294 260.3431289 152.39521042 258.64453125 154.09765625 C257.48635391 155.27435379 257.48635391 155.27435379 256.30477905 156.474823 C250.18166724 162.57325653 243.5992983 168.00058611 235.43359375 171.10546875 C234.65628906 171.41097656 233.87898438 171.71648437 233.078125 172.03125 C219.25431496 176.31685089 204.06215023 174.29138685 190.62109375 169.79296875 C189.63109375 169.46296875 188.64109375 169.13296875 187.62109375 168.79296875 C177.31215701 174.38858531 168.14513368 185.21587538 159.91796875 193.5078125 C156.95112692 196.49298359 153.84791891 199.23081753 150.61328125 201.921875 C148.01762711 204.35975409 145.86351783 207.0267951 143.62109375 209.79296875 C150.4820335 217.33513657 157.44309723 224.71517857 164.734375 231.84375 C166.85230446 233.95586297 168.81485064 236.15600873 170.7578125 238.4296875 C175.58298448 244.00419582 180.8764324 249.11861566 186.12109375 254.29296875 C191.85016299 259.94523592 197.51618703 265.57354012 202.74804688 271.69726562 C206.98272086 276.43533151 211.59869162 280.8311925 216.12109375 285.29296875 C218.13458898 287.27947171 220.14446097 289.26954475 222.15234375 291.26171875 C223.03470703 292.13248047 223.91707031 293.00324219 224.82617188 293.90039062 C226.97158539 296.0701531 228.97771635 298.33230132 230.97070312 300.64257812 C234.63145821 304.86392442 238.52256767 308.80503588 242.49609375 312.73046875 C243.22425293 313.45484131 243.95241211 314.17921387 244.70263672 314.92553711 C247.00635021 317.21715178 249.31328849 319.50547527 251.62109375 321.79296875 C254.66574154 324.81081956 257.70692342 327.83210291 260.74609375 330.85546875 C261.77452393 331.87145142 261.77452393 331.87145142 262.82373047 332.90795898 C266.75942812 336.82388653 270.48227545 340.84464892 274.06152344 345.09008789 C275.75651662 347.04252934 275.75651662 347.04252934 278.74609375 349.16796875 C283.70505638 353.69571724 287.33681438 360.8458591 287.82421875 367.61328125 C287.96559483 377.58029506 286.76229088 385.04050666 280.42578125 392.9375 C274.90183706 398.61687985 268.17891981 402.43713388 260.21875 403.05859375 C247.03291055 403.0003138 238.90307856 400.10105387 229.44140625 390.60546875 C228.00981432 389.00640758 226.59681714 387.39057443 225.19921875 385.76171875 C221.93972585 382.00836329 218.53442841 378.40607349 215.12109375 374.79296875 C210.18583339 369.55307022 205.32509986 364.26361418 200.53515625 358.890625 C198.23895355 356.37417428 195.83380399 353.98938412 193.40209961 351.60498047 C191.63941514 349.8116091 189.99201329 347.9600468 188.3515625 346.0546875 C184.84524663 342.02344084 181.22659352 338.11440643 177.55859375 334.23046875 C176.24206056 332.83084856 174.92565748 331.43110597 173.609375 330.03125 C172.94760254 329.32822754 172.28583008 328.62520508 171.60400391 327.90087891 C168.47884356 324.57871264 165.36050616 321.25021099 162.24609375 317.91796875 C161.66520996 317.29656006 161.08432617 316.67515137 160.48583984 316.03491211 C156.45722947 311.714917 152.50416487 307.33227762 148.5703125 302.92578125 C146.22873869 300.3636584 143.77714642 297.93462414 141.30078125 295.50390625 C138.86917463 293.02706044 136.63583068 290.39043126 134.37109375 287.76171875 C132.68311089 285.86273804 130.93339641 284.07290887 129.12109375 282.29296875 C126.72831884 279.94263774 124.48918263 277.52874475 122.30859375 274.98046875 C118.76476346 270.86325468 114.92938247 267.08525394 111.06640625 263.26953125 C107.75369706 259.91448712 104.66022404 256.39564638 101.62109375 252.79296875 C98.01947347 254.31903053 95.71490196 256.45137001 92.96362305 259.20751953 C92.04554367 260.12252228 91.12746429 261.03752502 90.18156433 261.98025513 C89.18596891 262.98275362 88.19055626 263.98543364 87.1953125 264.98828125 C86.16441275 266.02037458 85.13314144 267.05209689 84.10151672 268.08346558 C81.93899429 270.24755142 79.77986808 272.41495059 77.62329102 274.58496094 C74.87824743 277.34689803 72.12676466 280.10230411 69.37288189 282.85542488 C67.24056528 284.98801558 65.11088172 287.12321982 62.98203468 289.25927353 C61.96966839 290.27479245 60.95672137 291.28973282 59.94315147 292.30405045 C54.88839238 297.36661754 49.95960119 302.4646865 45.29988098 307.89303589 C42.20099538 311.40013582 38.8547896 314.66080119 35.52734375 317.94921875 C34.77698853 318.69578735 34.0266333 319.44235596 33.25354004 320.21154785 C30.07892871 323.36997987 26.89833459 326.52236154 23.71826172 329.67529297 C21.38169014 331.9936662 19.04821376 334.31512395 16.71484375 336.63671875 C15.65360291 337.68551208 15.65360291 337.68551208 14.57092285 338.75549316 C10.62713619 342.68005442 6.8945079 346.71448554 3.26159668 350.9276123 C0.86024001 353.65810797 -1.69308061 356.21365264 -4.28515625 358.76171875 C-4.81355103 359.2863269 -5.3419458 359.81093506 -5.88635254 360.35144043 C-8.10510209 362.5541299 -10.32989398 364.75067712 -12.55419922 366.94775391 C-18.17570062 372.50659263 -23.76057461 378.04509994 -28.89794922 384.06298828 C-44.14814194 401.87750619 -44.14814194 401.87750619 -56.20703125 403.21875 C-66.36076019 403.73123726 -74.59410356 402.02262374 -82.69140625 395.66796875 C-88.16293322 390.55087267 -92.01689538 383.05952544 -92.65234375 375.5703125 C-93.03988155 360.91840268 -87.88463394 353.96385207 -78.06137085 343.55386353 C-73.17765369 338.44248583 -68.17780892 333.44534779 -63.17114258 328.45483398 C-61.17997848 326.46907199 -59.19427404 324.47796135 -57.20898438 322.48632812 C-55.91828953 321.19629356 -54.62728478 319.90656896 -53.3359375 318.6171875 C-52.46531425 317.74352791 -52.46531425 317.74352791 -51.57710266 316.85221863 C-48.62656001 313.91815137 -45.61992489 311.10398185 -42.46704102 308.38769531 C-38.10397278 304.61107207 -34.05806019 300.56390984 -30.01171875 296.453125 C-28.45195131 294.880732 -26.89205177 293.30847004 -25.33203125 291.73632812 C-22.90077594 289.28009755 -20.47116354 286.82228085 -18.04394531 284.36206055 C-15.68334086 281.9714404 -13.31670822 279.58692401 -10.94921875 277.203125 C-10.21905548 276.45950211 -9.48889221 275.71587921 -8.73660278 274.94972229 C-7.7244722 273.93252357 -7.7244722 273.93252357 -6.69189453 272.89477539 C-5.80209396 271.99378868 -5.80209396 271.99378868 -4.89431763 271.07460022 C-3.37890625 269.79296875 -3.37890625 269.79296875 -1.37890625 269.79296875 C-1.17724854 269.25365723 -0.97559082 268.7143457 -0.76782227 268.15869141 C1.19627829 264.81326437 3.98272121 262.50282562 6.84375 259.94140625 C13.56089022 253.79848379 20.06090607 247.46028453 26.4921875 241.01953125 C26.96185566 240.54948418 27.43152382 240.0794371 27.91542435 239.59514618 C30.80796438 236.6991854 33.69668569 233.79944091 36.58422852 230.89849854 C39.07703126 228.395273 41.5728409 225.8950489 44.06835938 223.39453125 C48.92213027 218.53019032 53.77269811 213.66266721 58.62109375 208.79296875 C54.33974335 202.7269707 49.57251427 197.42418439 44.3359375 192.171875 C43.55722794 191.38650864 42.77851837 190.60114227 41.97621155 189.79197693 C40.3408476 188.14655034 38.70282042 186.50376678 37.06225586 184.86352539 C34.55192099 182.34878428 32.05805154 179.81843391 29.56445312 177.28710938 C27.96842767 175.68522115 26.37145526 174.08427574 24.7734375 172.484375 C23.65919655 171.3485775 23.65919655 171.3485775 22.52244568 170.18983459 C21.47094078 169.14755959 21.47094078 169.14755959 20.39819336 168.08422852 C19.78785751 167.47104263 19.17752167 166.85785675 18.5486908 166.22608948 C16.23405501 164.50521502 14.4656692 164.12011968 11.62109375 163.79296875 C9.53523705 164.05612233 9.53523705 164.05612233 7.49609375 164.66796875 C2.20852998 165.95295962 -2.9500146 166.49512432 -8.37890625 166.79296875 C-9.59835937 166.8703125 -10.8178125 166.94765625 -12.07421875 167.02734375 C-28.13136048 167.59295735 -41.27372989 163.27676121 -53.18359375 152.1796875 C-57.87611435 147.63730849 -62.26751428 142.8563324 -66.50390625 137.88671875 C-69.31352892 134.74930677 -72.32860094 131.82234167 -75.32543945 128.8659668 C-78.6242952 125.59439781 -81.70621007 122.20798017 -84.7109375 118.66796875 C-86.46548052 116.69564872 -88.333825 114.91615441 -90.25390625 113.10546875 C-102.62820859 100.75514761 -110.30401331 84.82626366 -110.69140625 67.23046875 C-110.6679545 59.8900716 -108.92386146 53.63253587 -106.37890625 46.79296875 C-103.37890625 46.79296875 -103.37890625 46.79296875 -101.36328125 48.48046875 C-100.6259375 49.24359375 -99.88859375 50.00671875 -99.12890625 50.79296875 C-98.3296875 51.61796875 -97.53046875 52.44296875 -96.70703125 53.29296875 C-94.13112957 56.05903767 -91.65299986 58.89373299 -89.1875 61.7578125 C-84.66412008 66.84783613 -79.80993053 71.62546384 -74.62890625 76.04296875 C-71.51249945 78.70180788 -68.64790524 81.52861918 -65.79443359 84.46142578 C-56.47947272 94.29626483 -56.47947272 94.29626483 -45.37890625 101.79296875 C-39.700554 101.78657421 -36.61389401 99.97626457 -32.25390625 96.48046875 C-31.70186523 96.03968994 -31.14982422 95.59891113 -30.58105469 95.14477539 C-24.76331963 90.42918341 -19.25277679 85.37319671 -13.84521484 80.19628906 C-12.49596073 78.90499491 -11.13522013 77.6257311 -9.7734375 76.34765625 C-2.37148351 69.4206277 -2.37148351 69.4206277 2.62109375 60.79296875 C1.64983508 55.8901082 -0.87377204 52.37213429 -3.94140625 48.54296875 C-4.60523315 47.69762573 -4.60523315 47.69762573 -5.2824707 46.83520508 C-8.71674419 42.50854685 -12.32764741 38.36102928 -16.078125 34.3046875 C-17.98408439 32.2239882 -19.84471648 30.11778742 -21.6953125 27.98828125 C-25.2572928 23.90608128 -28.91926801 19.92847928 -32.62890625 15.98046875 C-33.59691162 14.94660034 -33.59691162 14.94660034 -34.58447266 13.8918457 C-39.40001212 8.77198511 -44.3402227 3.80515217 -49.40234375 -1.0703125 C-51.37890625 -3.20703125 -51.37890625 -3.20703125 -52.37890625 -6.20703125 C-35.35538345 -13.23393992 -15.44640463 -9.14558813 0 0 Z " fill="#F9AD30" transform="translate(439.37890625,343.20703125)"/>
<path d="M0 0 C7.41927438 5.07518173 14.11168459 10.79134206 19.84765625 17.73046875 C21.98600445 20.21735829 24.28462175 22.49157891 26.62109375 24.79296875 C30.18851977 28.31741373 33.53126345 31.93070274 36.78515625 35.7421875 C38.92764775 38.13539609 41.19851823 40.36091421 43.49609375 42.60546875 C56.91807275 55.96625332 66.00595006 69.41051899 66.05859375 88.79296875 C66.06318604 89.80665527 66.06777832 90.8203418 66.07250977 91.86474609 C65.95934844 99.57317326 64.60230092 105.7616 61.6171875 112.83203125 C60.48397879 116.20054968 60.34328278 117.49756151 61.62109375 120.79296875 C63.22925094 122.98408293 64.82046158 124.96319426 66.62109375 126.98046875 C67.11802734 127.55144287 67.61496094 128.12241699 68.12695312 128.71069336 C69.61483284 130.41408702 71.11572017 132.10503293 72.62109375 133.79296875 C73.39453125 134.66695312 74.16796875 135.5409375 74.96484375 136.44140625 C79.43062916 141.44114427 83.97577254 146.36919297 88.51098633 151.3059082 C92.91592223 156.10371045 97.27463401 160.94210504 101.62109375 165.79296875 C97.12320025 171.18487272 92.35982833 176.18688559 87.37890625 181.1328125 C86.61053436 181.89976944 85.84216248 182.66672638 85.05050659 183.45692444 C82.61805866 185.88381615 80.18214053 188.30719002 77.74609375 190.73046875 C76.08700823 192.38453361 74.42815173 194.0388282 72.76953125 195.69335938 C68.72269666 199.72922308 64.67301422 203.76221152 60.62109375 207.79296875 C56.75375617 206.00883777 54.63259317 203.83046594 51.80078125 200.6171875 C45.62927029 193.7247797 39.19651548 187.11397905 32.67578125 180.55249023 C31.37414585 179.23916251 30.07703337 177.92133869 28.78417969 176.59936523 C26.88788538 174.66062011 24.97887835 172.73527218 23.06640625 170.8125 C22.20536789 169.92519951 22.20536789 169.92519951 21.32693481 169.01997375 C18.25263639 165.96218671 16.1624792 164.00659313 11.62109375 163.79296875 C9.53523705 164.05612233 9.53523705 164.05612233 7.49609375 164.66796875 C2.20852998 165.95295962 -2.9500146 166.49512432 -8.37890625 166.79296875 C-9.59835937 166.8703125 -10.8178125 166.94765625 -12.07421875 167.02734375 C-28.13136048 167.59295735 -41.27372989 163.27676121 -53.18359375 152.1796875 C-57.87611435 147.63730849 -62.26751428 142.8563324 -66.50390625 137.88671875 C-69.31352892 134.74930677 -72.32860094 131.82234167 -75.32543945 128.8659668 C-78.6242952 125.59439781 -81.70621007 122.20798017 -84.7109375 118.66796875 C-86.46548052 116.69564872 -88.333825 114.91615441 -90.25390625 113.10546875 C-102.62820859 100.75514761 -110.30401331 84.82626366 -110.69140625 67.23046875 C-110.6679545 59.8900716 -108.92386146 53.63253587 -106.37890625 46.79296875 C-103.37890625 46.79296875 -103.37890625 46.79296875 -101.36328125 48.48046875 C-100.6259375 49.24359375 -99.88859375 50.00671875 -99.12890625 50.79296875 C-98.3296875 51.61796875 -97.53046875 52.44296875 -96.70703125 53.29296875 C-94.13112957 56.05903767 -91.65299986 58.89373299 -89.1875 61.7578125 C-84.66412008 66.84783613 -79.80993053 71.62546384 -74.62890625 76.04296875 C-71.51249945 78.70180788 -68.64790524 81.52861918 -65.79443359 84.46142578 C-56.47947272 94.29626483 -56.47947272 94.29626483 -45.37890625 101.79296875 C-39.700554 101.78657421 -36.61389401 99.97626457 -32.25390625 96.48046875 C-31.70186523 96.03968994 -31.14982422 95.59891113 -30.58105469 95.14477539 C-24.76331963 90.42918341 -19.25277679 85.37319671 -13.84521484 80.19628906 C-12.49596073 78.90499491 -11.13522013 77.6257311 -9.7734375 76.34765625 C-2.37148351 69.4206277 -2.37148351 69.4206277 2.62109375 60.79296875 C1.64983508 55.8901082 -0.87377204 52.37213429 -3.94140625 48.54296875 C-4.60523315 47.69762573 -4.60523315 47.69762573 -5.2824707 46.83520508 C-8.71674419 42.50854685 -12.32764741 38.36102928 -16.078125 34.3046875 C-17.98408439 32.2239882 -19.84471648 30.11778742 -21.6953125 27.98828125 C-25.2572928 23.90608128 -28.91926801 19.92847928 -32.62890625 15.98046875 C-33.59691162 14.94660034 -33.59691162 14.94660034 -34.58447266 13.8918457 C-39.40001212 8.77198511 -44.3402227 3.80515217 -49.40234375 -1.0703125 C-51.37890625 -3.20703125 -51.37890625 -3.20703125 -52.37890625 -6.20703125 C-35.35538345 -13.23393992 -15.44640463 -9.14558813 0 0 Z " fill="#F15227" transform="translate(439.37890625,343.20703125)"/>
<path d="M0 0 C3.50054477 1.63691925 5.41606206 3.35549696 7.9375 6.3125 C12.17110097 11.14790209 16.62069413 15.69157862 21.21850586 20.1809082 C24.00125064 22.9195305 26.64293792 25.71076223 29.1796875 28.6796875 C33.98752141 34.24210821 39.26994212 39.34005461 44.5 44.5 C50.22906924 50.15226717 55.89509328 55.78057137 61.12695312 61.90429688 C65.36162711 66.64236276 69.97759787 71.03822375 74.5 75.5 C76.51349523 77.48650296 78.52336722 79.476576 80.53125 81.46875 C81.41361328 82.33951172 82.29597656 83.21027344 83.20507812 84.10742188 C85.35049164 86.27718435 87.3566226 88.53933257 89.34960938 90.84960938 C93.01036446 95.07095567 96.90147392 99.01206713 100.875 102.9375 C101.60315918 103.66187256 102.33131836 104.38624512 103.08154297 105.13256836 C105.38525646 107.42418303 107.69219474 109.71250652 110 112 C113.04464779 115.01785081 116.08582967 118.03913416 119.125 121.0625 C119.81062012 121.73982178 120.49624023 122.41714355 121.20263672 123.11499023 C125.13833437 127.03091778 128.8611817 131.05168017 132.44042969 135.29711914 C134.13542287 137.24956059 134.13542287 137.24956059 137.125 139.375 C142.08396263 143.90274849 145.71572063 151.05289035 146.203125 157.8203125 C146.34450108 167.78732631 145.14119713 175.24753791 138.8046875 183.14453125 C133.28074331 188.8239111 126.55782606 192.64416513 118.59765625 193.265625 C105.4118168 193.20734505 97.28198481 190.30808512 87.8203125 180.8125 C86.38872057 179.21343883 84.97572339 177.59760568 83.578125 175.96875 C80.3186321 172.21539454 76.91333466 168.61310474 73.5 165 C68.56473964 159.76010147 63.70400611 154.47064543 58.9140625 149.09765625 C56.6178598 146.58120553 54.21271024 144.19641537 51.78100586 141.81201172 C50.01832139 140.01864035 48.37091954 138.16707805 46.73046875 136.26171875 C43.22415288 132.23047209 39.60549977 128.32143768 35.9375 124.4375 C34.62096681 123.03787981 33.30456373 121.63813722 31.98828125 120.23828125 C31.32650879 119.53525879 30.66473633 118.83223633 29.98291016 118.10791016 C26.85774981 114.78574389 23.73941241 111.45724224 20.625 108.125 C20.04411621 107.50359131 19.46323242 106.88218262 18.86474609 106.24194336 C14.83613572 101.92194825 10.88307112 97.53930887 6.94921875 93.1328125 C4.60764494 90.57068965 2.15605267 88.14165539 -0.3203125 85.7109375 C-2.75191912 83.23409169 -4.98526307 80.59746251 -7.25 77.96875 C-8.93798286 76.06976929 -10.68769734 74.27994012 -12.5 72.5 C-14.89277491 70.14966899 -17.13191112 67.735776 -19.3125 65.1875 C-22.07618029 61.97666245 -24.98619596 58.97732835 -28 56 C-37.52674803 46.54608644 -37.52674803 46.54608644 -40 43 C-40 40 -40 40 -38.48144531 38.12068176 C-37.77084961 37.41674789 -37.06025391 36.71281403 -36.328125 35.98754883 C-35.52729492 35.18694534 -34.72646484 34.38634186 -33.90136719 33.56147766 C-33.02641602 32.70201035 -32.15146484 31.84254303 -31.25 30.95703125 C-30.3621582 30.0734343 -29.47431641 29.18983734 -28.55957031 28.27946472 C-26.19749372 25.93135977 -23.82914118 23.58996475 -21.45751953 21.25152588 C-19.03919125 18.86388241 -16.62933037 16.46772672 -14.21875 14.07226562 C-9.48695353 9.37360317 -4.74670259 4.68360083 0 0 Z " fill="#F15227" transform="translate(581,553)"/>
<path d="M0 0 C3.48350269 1.99753301 6.19448387 4.38896774 8 8 C8.52383318 13.25550671 8.61997842 17.66466186 6.375 22.5 C2.75375204 26.31183995 -0.22715478 27.77436515 -5.4375 28.4375 C-10.42992833 27.82439477 -14.04226343 26.32625168 -17.328125 22.421875 C-19.95474828 18.31546396 -20.71439663 14.91147681 -20 10 C-15.38728967 1.28710272 -9.73264311 -1.89091352 0 0 Z " fill="#FEFDFA" transform="translate(391,694)"/>
<path d="M0 0 C4.4331235 2.13739883 7.12530646 4.4174158 9 9 C9.53580592 14.6259622 9.18905893 18.16142783 6 23 C1.67899005 26.89944801 -0.99463165 28.36020885 -6.90234375 28.28515625 C-11.21394851 27.69903493 -14.03150384 25.10208184 -16.8125 21.9375 C-19.30470992 17.87126276 -19.6426686 13.64834275 -19 9 C-14.44356379 0.37531717 -9.33096617 -1.21708254 0 0 Z " fill="#FEFCFB" transform="translate(696,696)"/>
</svg>
