<?xml version="1.0" encoding="UTF-8"?>
<svg version="1.1" xmlns="http://www.w3.org/2000/svg" width="1080" height="1080">
<path d="M0 0 C356.4 0 712.8 0 1080 0 C1080 356.4 1080 712.8 1080 1080 C723.6 1080 367.2 1080 0 1080 C0 723.6 0 367.2 0 0 Z " fill="#FEFEFE" transform="translate(0,0)"/>
<path d="M0 0 C0.40557129 0.80497925 0.40557129 0.80497925 0.81933594 1.6262207 C16.25980549 32.10270493 35.31320619 60.29940513 59 85 C59.53206055 85.55929199 60.06412109 86.11858398 60.61230469 86.69482422 C73.13762576 99.79473446 86.80296702 110.18791008 102 120 C101.49082409 125.07217541 99.0151045 128.50006293 96.25 132.625 C95.7655542 133.35847656 95.2811084 134.09195313 94.78198242 134.84765625 C93.19709095 137.23796785 91.59887318 139.61902283 90 142 C89.45102051 142.8259668 88.90204102 143.65193359 88.33642578 144.50292969 C72.6963925 168.01992701 72.6963925 168.01992701 61.19921875 175.4921875 C59.20361628 176.86039808 57.6751654 178.27170716 56 180 C56.45213867 180.31638428 56.90427734 180.63276855 57.37011719 180.95874023 C62.594557 184.61889327 67.80087989 188.30399184 73 192 C73.63309082 192.44714355 74.26618164 192.89428711 74.91845703 193.35498047 C76.5577293 194.51722313 78.1855298 195.69559781 79.8125 196.875 C80.72644531 197.53242187 81.64039063 198.18984375 82.58203125 198.8671875 C87.08910222 202.84272991 89.72134958 207.15353307 90.30859375 213.15234375 C90.65851597 223.4273327 88.94829909 230.86546483 82.2890625 239.12109375 C80.60857002 240.88903267 78.88712267 242.45636676 77 244 C76.4328125 244.47050781 75.865625 244.94101562 75.28125 245.42578125 C68.10099705 250.95783977 61.02312479 252.9140636 52 252 C48.08869753 250.99334226 44.38064238 249.60170836 40.625 248.125 C39.65433594 247.76019531 38.68367188 247.39539063 37.68359375 247.01953125 C33.690624 245.50495652 29.79533901 243.96483882 26 242 C26.72316406 243.08667969 26.72316406 243.08667969 27.4609375 244.1953125 C28.40839844 245.64550781 28.40839844 245.64550781 29.375 247.125 C30.00148438 248.07632813 30.62796875 249.02765625 31.2734375 250.0078125 C35.26839612 256.93120233 36.00797682 263.53859832 34.5703125 271.328125 C31.36445604 282.6475688 22.96280557 289.54273234 13.0390625 295.09765625 C6.20630348 298.19690348 -2.31514554 298.10545634 -9.3984375 295.98046875 C-10.68621094 295.49513672 -10.68621094 295.49513672 -12 295 C-12.15855469 295.56847656 -12.31710937 296.13695312 -12.48046875 296.72265625 C-14.99348274 305.03920531 -18.24917001 310.64015813 -26 315 C-33.414632 318.55390982 -42.68294514 318.0762279 -50.375 315.5 C-51.57125 315.005 -52.7675 314.51 -54 314 C-54.25007813 314.73347656 -54.50015625 315.46695312 -54.7578125 316.22265625 C-58.88247871 325.44478731 -68.10606565 330.26080838 -77 334 C-85.78726544 336.92908848 -98.6867912 336.03190627 -107 332 C-109.92501162 330.19545654 -112.76177679 328.33120382 -115.5546875 326.328125 C-117.84646323 324.79534493 -117.84646323 324.79534493 -120.1015625 325.16796875 C-122.01268154 326.00555796 -123.72104698 326.97406164 -125.5 328.0625 C-130.87979917 330.7774452 -136.10699966 330.99250532 -142 330 C-148.62473615 327.44588486 -152.36234561 323.08116981 -155.203125 316.6796875 C-156.46936767 312.42163617 -156.42048206 308.39170147 -156 304 C-156.70511719 304.32097656 -157.41023437 304.64195312 -158.13671875 304.97265625 C-163.62454962 306.94168697 -169.9207365 307.15907657 -175.41796875 305.08984375 C-179.82410324 302.51890974 -182.82802916 299.67809103 -185 295 C-185.89522018 290.68853731 -186.50675016 286.37434725 -187 282 C-187.86625 282.78375 -188.7325 283.5675 -189.625 284.375 C-194.25386358 288.19273095 -198.87208943 289.50486542 -204.921875 289.30859375 C-211.38180246 288.34931881 -215.89353864 284.75873013 -219.8125 279.7109375 C-224.00787352 273.66628749 -223.63018625 266.93866407 -222.5 259.875 C-222.335 259.25625 -222.17 258.6375 -222 258 C-226.42379405 254.17401596 -229.70622244 253.40520885 -235.51171875 253.59375 C-239.89661804 254.10442136 -244.12979875 255.05121097 -248.4375 256 C-255.61481137 257.55921842 -262.52470143 258.43456101 -269.875 258.5 C-270.70056396 258.51804687 -271.52612793 258.53609375 -272.37670898 258.5546875 C-277.70261243 258.50191769 -280.8136795 257.56496259 -285 254 C-286.64453125 252 -286.64453125 252 -287.8125 250 C-288.21082031 249.34 -288.60914063 248.68 -289.01953125 248 C-291.7213828 242.4886534 -292.19420741 235.57024703 -290.24609375 229.74609375 C-288.33056888 225.78734236 -286.0174657 222.21863008 -283 219 C-282.34 219 -281.68 219 -281 219 C-281 218.01 -281 217.02 -281 216 C-281.8815979 215.5824646 -281.8815979 215.5824646 -282.78100586 215.15649414 C-284.86164278 214.07210894 -286.63097293 212.90229136 -288.50390625 211.49609375 C-289.48327148 210.76265747 -289.48327148 210.76265747 -290.48242188 210.0144043 C-291.16884766 209.49402588 -291.85527344 208.97364746 -292.5625 208.4375 C-293.27341797 207.9010083 -293.98433594 207.3645166 -294.71679688 206.81176758 C-303.42788566 200.20467822 -311.83645038 193.27468175 -320 186 C-316.93369353 182.76456871 -313.63986216 180.15317342 -310.0625 177.5 C-268.1294406 145.75639365 -243.44850979 97.07464609 -225 49 C-218.44445959 48.77809786 -212.41020521 49.62065677 -205.96875 50.79296875 C-204.91119507 50.97956055 -203.85364014 51.16615234 -202.76403809 51.35839844 C-200.50707642 51.75702077 -198.25061694 52.15849536 -195.99462891 52.56259155 C-190.13475705 53.610452 -184.27018013 54.63139133 -178.40625 55.65625 C-176.6725415 55.96008858 -176.6725415 55.96008858 -174.90380859 56.27006531 C-165.94900178 57.83866182 -156.99408444 59.40397628 -148.01977539 60.85757446 C-146.04225749 61.18059734 -144.06698573 61.51727649 -142.09179688 61.85424805 C-140.34479492 62.13328979 -140.34479492 62.13328979 -138.5625 62.41796875 C-137.57378906 62.58063232 -136.58507812 62.7432959 -135.56640625 62.91088867 C-131.54044059 63.05067915 -129.77728529 61.69062995 -126.82104492 59.06396484 C-126.04865479 58.28746582 -125.27626465 57.5109668 -124.48046875 56.7109375 C-123.62259766 55.85113281 -122.76472656 54.99132812 -121.88085938 54.10546875 C-120.99205078 53.20441406 -120.10324219 52.30335938 -119.1875 51.375 C-118.31029297 50.49714844 -117.43308594 49.61929688 -116.52929688 48.71484375 C-111.48281076 43.63438728 -106.66092878 38.43359612 -102 33 C-99.89685315 30.60468746 -97.76759355 28.23503497 -95.625 25.875 C-95.11195313 25.29363281 -94.59890625 24.71226562 -94.0703125 24.11328125 C-86.68338872 16.02025446 -79.37266626 12.21763379 -68.625 10.3125 C-67.03582764 10.00699219 -67.03582764 10.00699219 -65.41455078 9.6953125 C-57.75279682 8.2462592 -50.0636733 6.97252042 -42.3515625 5.82421875 C-38.02422934 5.17333203 -33.71106599 4.44810205 -29.3984375 3.70703125 C-28.04183298 3.47523962 -26.68522488 3.24346892 -25.32861328 3.01171875 C-22.65669691 2.55491829 -19.98616206 2.09163816 -17.31591797 1.625 C-16.08244629 1.41488281 -14.84897461 1.20476562 -13.578125 0.98828125 C-11.92925293 0.70271362 -11.92925293 0.70271362 -10.24707031 0.41137695 C-6.7990024 -0.02546473 -3.4719418 -0.06942786 0 0 Z " fill="#F8B57C" transform="translate(653,421)"/>
<path d="M0 0 C7.63694622 4.01210015 14.88429124 8.40883031 22.0625 13.1875 C28.9977706 17.75868963 35.95218944 22.26805008 43.0625 26.5625 C52.50277146 32.2689883 61.79577995 38.19778281 71.08886719 44.14013672 C76.17954767 47.39246848 81.27774332 50.63298873 86.375 53.875 C88.23701121 55.05984548 90.09899345 56.24473648 91.9609375 57.4296875 C92.74259277 57.92710449 93.52424805 58.42452148 94.32958984 58.93701172 C95.15644287 59.46319092 95.15644287 59.46319092 96 60 C92.08748795 70.9661447 87.63546265 81.49067085 82.5 91.9375 C82.15340332 92.64655487 81.80680664 93.35560974 81.44970703 94.08615112 C59.42710515 139.06590955 24.15311664 203.33031889 -24 226 C-54.80117157 205.53260148 -85.48059592 184.88553049 -116 164 C-114.64483009 161.15917996 -113.12215438 158.57861 -111.34765625 155.98046875 C-110.82421631 155.21331543 -110.30077637 154.44616211 -109.76147461 153.65576172 C-109.20081299 152.84123535 -108.64015137 152.02670898 -108.0625 151.1875 C-107.48056885 150.33945801 -106.8986377 149.49141602 -106.29907227 148.61767578 C-102.32730664 142.85680216 -98.25720907 137.180303 -94.09155273 131.55859375 C-90.70266878 126.98057408 -87.39861559 122.34854824 -84.125 117.6875 C-79.96039455 111.75930818 -75.75163615 105.86609341 -71.5 100 C-67.29307142 94.19438858 -63.12391078 88.36487575 -59 82.5 C-54.33863251 75.87077288 -49.61055569 69.29271463 -44.85546875 62.73046875 C-41.20004412 57.67917792 -37.58642038 52.60047648 -34 47.5 C-29.34588353 40.88108502 -24.62574386 34.31283046 -19.87744141 27.76123047 C-15.49205946 21.70207899 -11.16737992 15.6016967 -6.86914062 9.48046875 C-6.17208008 8.48853516 -6.17208008 8.48853516 -5.4609375 7.4765625 C-4.85451416 6.611521 -4.85451416 6.611521 -4.23583984 5.72900391 C-2.85411884 3.79590471 -1.43186445 1.8961687 0 0 Z " fill="#2C5189" transform="translate(310,372)"/>
<path d="M0 0 C3.56531875 2.68951746 6.35752512 5.4386962 9.125 8.9375 C10.28902344 10.38962891 10.28902344 10.38962891 11.4765625 11.87109375 C11.88551758 12.38140137 12.29447266 12.89170898 12.71582031 13.41748047 C14.93264824 16.14932051 17.21853874 18.8221259 19.5 21.5 C23.6216932 26.34900892 27.66992744 31.25162514 31.6875 36.1875 C34.26146392 39.31799666 36.87569086 42.41172461 39.5 45.5 C42.87278574 49.46907935 46.21176517 53.46016863 49.5 57.5 C54.58175677 63.73916756 59.78894106 69.86891962 65 76 C70.9600827 83.01234558 76.87758795 90.04960805 82.6875 97.1875 C85.26146392 100.31799666 87.87569086 103.41172461 90.5 106.5 C94.62101634 111.34959381 98.66991354 116.25160806 102.6875 121.1875 C105.26146571 124.31799884 107.8757825 127.41164444 110.5 130.5 C122.90732678 145.10897655 122.90732678 145.10897655 128 152 C126.66604327 154.99602215 125.24215997 156.96601609 122.83203125 159.1796875 C122.19394531 159.77136719 121.55585937 160.36304688 120.8984375 160.97265625 C119.86589844 161.91431641 119.86589844 161.91431641 118.8125 162.875 C117.73935547 163.86693359 117.73935547 163.86693359 116.64453125 164.87890625 C115.15775053 166.25313139 113.66895765 167.62518258 112.17822266 168.99511719 C108.9359112 171.97941014 105.71851081 174.99009239 102.5 178 C101.26050227 179.15634176 100.02091829 180.31259109 98.78125 181.46875 C94.84825925 185.13954137 90.92378493 188.81937385 87 192.5 C85.66930132 193.74742836 84.3385722 194.99482424 83.0078125 196.2421875 C80.98180786 198.14125695 78.9564091 200.04095526 76.93261719 201.94238281 C74.91480346 203.83807826 72.89505901 205.73169768 70.875 207.625 C70.27171875 208.19283203 69.6684375 208.76066406 69.046875 209.34570312 C67.91208093 210.40798233 66.77138506 211.46400279 65.62402344 212.51269531 C64.53921921 213.50617507 63.46937734 214.51623732 62.41503906 215.54199219 C58.70888991 218.97413669 58.70888991 218.97413669 55.64453125 219.0859375 C51.83485126 217.52154897 48.27146081 215.64980203 44.6875 213.625 C43.89351807 213.17801758 43.09953613 212.73103516 42.28149414 212.27050781 C21.76393551 200.53452144 3.94300341 185.38344572 -13 169 C-13.4964502 168.52014648 -13.99290039 168.04029297 -14.50439453 167.54589844 C-19.95039203 162.25312282 -25.08026722 156.7804415 -30 151 C-30.91454028 149.94850124 -31.82998278 148.89778684 -32.74609375 147.84765625 C-39.46791242 140.11707509 -45.89480821 132.22806305 -52 124 C-52.49081055 123.3404834 -52.98162109 122.6809668 -53.48730469 122.00146484 C-64.89168672 106.61443102 -75.64967237 90.72858616 -85 74 C-81.24034086 68.94390667 -76.80503283 65.27992584 -71.89453125 61.35546875 C-69.18012565 59.14657998 -66.58281236 56.86036919 -64 54.5 C-59.70008209 50.58108748 -55.24080453 46.90829131 -50.71875 43.25 C-48.07852271 41.06498431 -45.5327028 38.80828609 -43 36.5 C-38.70008209 32.58108748 -34.24080453 28.90829131 -29.71875 25.25 C-27.07852271 23.06498431 -24.5327028 20.80828609 -22 18.5 C-16.8309735 13.7919058 -11.43398355 9.39650938 -6 5 C-3.99321079 3.34120892 -1.99572671 1.67209535 0 0 Z " fill="#1B3A60" transform="translate(758,315)"/>
<path d="M0 0 C0.40557129 0.80497925 0.40557129 0.80497925 0.81933594 1.6262207 C16.25980549 32.10270493 35.31320619 60.29940513 59 85 C59.53206055 85.55929199 60.06412109 86.11858398 60.61230469 86.69482422 C73.13762576 99.79473446 86.80296702 110.18791008 102 120 C101.49082409 125.07217541 99.0151045 128.50006293 96.25 132.625 C95.7655542 133.35847656 95.2811084 134.09195313 94.78198242 134.84765625 C93.19709095 137.23796785 91.59887318 139.61902283 90 142 C89.45102051 142.8259668 88.90204102 143.65193359 88.33642578 144.50292969 C68.28061554 174.65967086 68.28061554 174.65967086 55.74316406 177.82128906 C51.22841444 178.03683803 49.02232567 176.73178233 45.51953125 174.171875 C44.91737289 173.75593079 44.31521454 173.33998657 43.69480896 172.91143799 C41.72093995 171.54206488 39.76735787 170.146344 37.8125 168.75 C36.43402585 167.78704285 35.05412103 166.82613073 33.67285156 165.8671875 C30.83334702 163.89318851 28.00058809 161.91004463 25.17236328 159.91992188 C19.50006017 155.93771215 13.7559193 152.06309458 8.0100708 148.18817139 C5.11348013 146.23276928 2.22267948 144.26885931 -0.66796875 142.3046875 C-1.7461084 141.57217773 -2.82424805 140.83966797 -3.93505859 140.08496094 C-10.5522651 135.58353163 -17.15603007 131.06253992 -23.75683594 126.53710938 C-26.11036675 124.92437211 -28.4651641 123.31349902 -30.8203125 121.703125 C-38.15739378 116.68626702 -45.49143006 111.66519945 -52.8125 106.625 C-62.85081035 99.71463496 -72.92703458 92.85970059 -83 86 C-83.71800781 86.7321875 -84.43601562 87.464375 -85.17578125 88.21875 C-96.13891075 99.01508223 -107.94483571 107.42677814 -123.75 107.3125 C-124.94870728 107.30512817 -124.94870728 107.30512817 -126.17163086 107.29760742 C-136.30648967 107.09678459 -145.86092821 104.3071415 -153.671875 97.5546875 C-155.83353118 95.23515756 -156.95181439 93.18471151 -157.75 90.125 C-156.13609239 83.40038497 -150.72718814 79.38873083 -145.19140625 75.6796875 C-138.00066296 70.51891276 -131.93311656 64.31246947 -125.73730469 58.01855469 C-123.74672305 55.99667152 -121.7455391 53.98578616 -119.7421875 51.9765625 C-113.62120285 45.81845501 -107.60864849 39.63359852 -102 33 C-99.89831124 30.60340516 -97.76758842 28.23502933 -95.625 25.875 C-94.85542969 25.00294922 -94.85542969 25.00294922 -94.0703125 24.11328125 C-86.68338872 16.02025446 -79.37266626 12.21763379 -68.625 10.3125 C-67.03582764 10.00699219 -67.03582764 10.00699219 -65.41455078 9.6953125 C-57.75279682 8.2462592 -50.0636733 6.97252042 -42.3515625 5.82421875 C-38.02422934 5.17333203 -33.71106599 4.44810205 -29.3984375 3.70703125 C-28.04183298 3.47523962 -26.68522488 3.24346892 -25.32861328 3.01171875 C-22.65669691 2.55491829 -19.98616206 2.09163816 -17.31591797 1.625 C-15.46571045 1.30982422 -15.46571045 1.30982422 -13.578125 0.98828125 C-11.92925293 0.70271362 -11.92925293 0.70271362 -10.24707031 0.41137695 C-6.7990024 -0.02546473 -3.4719418 -0.06942786 0 0 Z " fill="#CB7749" transform="translate(653,421)"/>
<path d="M0 0 C5.38587429 3.15343941 9.19190799 7.28070104 11.6640625 13.04296875 C13.02899603 21.87015586 10.21810318 29.27105486 6.9765625 37.35546875 C6.05812014 39.73289001 5.14014678 42.1104925 4.22265625 44.48828125 C3.78034668 45.6165332 3.33803711 46.74478516 2.88232422 47.90722656 C1.36084435 51.82343646 -0.07023229 55.766289 -1.4609375 59.73046875 C-1.83476562 60.78621094 -2.20859375 61.84195313 -2.59375 62.9296875 C-2.83867187 63.62707031 -3.08359375 64.32445312 -3.3359375 65.04296875 C-3.01431641 64.55530029 -2.69269531 64.06763184 -2.36132812 63.56518555 C1.287759 58.0401501 4.96771649 52.53647913 8.6640625 47.04296875 C9.06818359 46.43727051 9.47230469 45.83157227 9.88867188 45.20751953 C14.57565894 38.22185985 19.42211222 31.79028551 27.6640625 29.04296875 C34.20444652 28.47914254 39.0464905 29.55878765 44.6640625 33.04296875 C48.87048867 36.76953563 51.43570987 41.24468144 51.89453125 46.8671875 C51.88035156 47.81207031 51.86617187 48.75695312 51.8515625 49.73046875 C51.84511719 50.68308594 51.83867188 51.63570312 51.83203125 52.6171875 C51.6640625 55.04296875 51.6640625 55.04296875 50.6640625 57.04296875 C51.34855469 56.55828125 52.03304687 56.07359375 52.73828125 55.57421875 C58.07218971 52.78264049 63.80506237 53.35367462 69.6640625 54.04296875 C75.2026613 55.90063543 78.99673839 59.68255734 81.8203125 64.73828125 C84.22880626 71.31703735 83.10544907 77.71785318 80.59179688 84.05273438 C79.14869878 87.14855955 77.22043602 89.83706484 75.1640625 92.54296875 C74.27297428 93.74739387 73.38372521 94.95318133 72.49609375 96.16015625 C72.03412598 96.78631836 71.5721582 97.41248047 71.09619141 98.05761719 C69.59963753 100.1322807 68.16303097 102.23872938 66.73828125 104.36328125 C66.25617188 105.08064453 65.7740625 105.79800781 65.27734375 106.53710938 C64.34851108 107.92526888 63.42504728 109.3170406 62.5078125 110.71289062 C58.85177583 116.14205018 55.09899201 120.06906399 48.6640625 122.04296875 C42.57466315 122.92746251 37.10983708 122.86006121 31.7265625 119.66796875 C27.03109293 116.03111414 24.35087176 111.71527832 22.6640625 106.04296875 C22.31339283 102.65623799 22.33983416 99.42935366 22.6640625 96.04296875 C21.95894531 96.36394531 21.25382812 96.68492187 20.52734375 97.015625 C15.03951288 98.98465572 8.743326 99.20204532 3.24609375 97.1328125 C-1.16004074 94.56187849 -4.16396666 91.72105978 -6.3359375 87.04296875 C-7.23115768 82.73150606 -7.84268766 78.417316 -8.3359375 74.04296875 C-9.6353125 75.21859375 -9.6353125 75.21859375 -10.9609375 76.41796875 C-15.58980108 80.2356997 -20.20802693 81.54783417 -26.2578125 81.3515625 C-32.71773996 80.39228756 -37.22947614 76.80169888 -41.1484375 71.75390625 C-44.82938445 66.45043663 -44.87842499 61.33561597 -44.3359375 55.04296875 C-43.45219825 51.46408031 -42.16278111 48.10607588 -40.79296875 44.6875 C-40.42749435 43.74162521 -40.06201996 42.79575043 -39.68547058 41.82121277 C-38.91414659 39.83575989 -38.13466234 37.85345956 -37.34741211 35.87426758 C-36.15048962 32.86063562 -34.98261635 29.83692771 -33.81835938 26.81054688 C-33.06158657 24.87303668 -32.30317763 22.93616458 -31.54296875 21 C-31.19692093 20.10505325 -30.85087311 19.21010651 -30.49433899 18.28804016 C-27.31391373 10.35409987 -23.74382123 3.87651368 -15.86328125 -0.0703125 C-10.5509302 -1.93415128 -5.25281352 -2.15207243 0 0 Z " fill="#CB7749" transform="translate(474.3359375,628.95703125)"/>
<path d="M0 0 C10 5.33333333 20 10.66666667 30 16 C29.39718464 20.56727672 28.58544719 24.66644435 27 29 C27.66 29.33 28.32 29.66 29 30 C28.01 30 27.02 30 26 30 C25.75564209 30.89247437 25.75564209 30.89247437 25.50634766 31.80297852 C23.61571671 38.42790893 21.16875604 44.64601965 18.375 50.9375 C17.93260986 51.93966553 17.49021973 52.94183105 17.03442383 53.97436523 C15.69809439 56.98677697 14.35021252 59.99379006 13 63 C12.62568848 63.84336914 12.25137695 64.68673828 11.86572266 65.55566406 C0.75730941 90.48210809 -13.85051408 113.61362091 -32 134 C-32.4522998 134.51401367 -32.90459961 135.02802734 -33.37060547 135.55761719 C-45.13286397 148.89402246 -61.69936441 166.83767837 -79 173 C-82.33533316 171.6662236 -85.01044243 169.58854905 -87.84375 167.41015625 C-88.76027344 166.70826172 -89.67679687 166.00636719 -90.62109375 165.28320312 C-91.57113281 164.55037109 -92.52117187 163.81753906 -93.5 163.0625 C-95.3853851 161.61584427 -97.27080061 160.16922818 -99.15625 158.72265625 C-100.40631836 157.75984741 -100.40631836 157.75984741 -101.68164062 156.77758789 C-103.77737041 155.17069988 -105.88397217 153.58002021 -108 152 C-107.44054687 151.56171875 -106.88109375 151.1234375 -106.3046875 150.671875 C-90.97356587 138.5868454 -90.97356587 138.5868454 -77 125 C-76.50113281 124.45988281 -76.00226563 123.91976562 -75.48828125 123.36328125 C-43.43504234 87.58472644 -17.28579898 44.79700018 0 0 Z " fill="#F1F0F8" transform="translate(402,440)"/>
<path d="M0 0 C2.86556738 3.48513874 5.43529061 7.05799846 7.90625 10.83203125 C8.65118758 11.96395761 9.39639653 13.09570541 10.1418457 14.22729492 C10.52668121 14.81288177 10.91151672 15.39846863 11.30801392 16.00180054 C18.51416435 26.94838196 25.86749579 37.71429249 34 48 C34.52400391 48.66531738 35.04800781 49.33063477 35.58789062 50.01611328 C41.97240772 58.08764245 48.56472943 65.88583985 55.58984375 73.40625 C57.5957237 75.56492794 59.52912914 77.75593981 61.4375 80 C68.61861088 88.26863488 76.57539858 96.00966957 85 103 C85.81911865 103.68980957 85.81911865 103.68980957 86.65478516 104.39355469 C99.99346923 115.60517445 114.10282671 125.00642827 129 134 C124.80780699 139.01520023 120.41938881 143.67953892 115.75 148.25 C114.51328807 149.46116003 113.27881688 150.6746134 112.046875 151.890625 C111.50901367 152.41688477 110.97115234 152.94314453 110.41699219 153.48535156 C108.78121757 155.15119893 108.78121757 155.15119893 107 158 C100.73256718 157.54380388 96.31052862 156.03511835 90.8125 153.0625 C89.4449156 152.34332815 88.07644591 151.62583687 86.70703125 150.91015625 C86.0723291 150.5764502 85.43762695 150.24274414 84.78369141 149.89892578 C82.57501954 148.78582288 80.31808656 147.85971754 78 147 C78 146.34 78 145.68 78 145 C77.30777344 144.76023437 76.61554688 144.52046875 75.90234375 144.2734375 C72.4823087 142.77285684 69.57133538 140.80503915 66.5625 138.625 C65.64343872 137.9597229 65.64343872 137.9597229 64.70581055 137.28100586 C46.95556496 124.24357647 30.32660058 108.54489955 17 91 C16.278125 90.10667969 15.55625 89.21335937 14.8125 88.29296875 C-1.72105128 67.54444963 -16.48977248 44.39640653 -27 20 C-23.81351849 17.60280973 -20.62563047 15.20749668 -17.4375 12.8125 C-16.54224609 12.13896484 -15.64699219 11.46542969 -14.72460938 10.77148438 C-9.85889998 7.11774655 -4.9698209 3.510916 0 0 Z " fill="#AAA5D9" transform="translate(677,396)"/>
<path d="M0 0 C3.37116272 1.26778769 6.01407401 3.4394268 8.84765625 5.609375 C21.63555803 15.195917 34.95317536 24.05121996 48.28515625 32.859375 C38.17581146 39.59893819 21.01211077 40.32927854 9.09765625 40.421875 C8.29207275 40.43621582 7.48648926 40.45055664 6.65649414 40.46533203 C1.44436582 40.37528566 -1.61250415 39.32072403 -5.71484375 35.859375 C-7.359375 33.859375 -7.359375 33.859375 -8.52734375 31.859375 C-9.12482422 30.869375 -9.12482422 30.869375 -9.734375 29.859375 C-12.43622655 24.3480284 -12.90905116 17.42962203 -10.9609375 11.60546875 C-5.14138008 -0.42161659 -5.14138008 -0.42161659 0 0 Z " fill="#CB784B" transform="translate(373.71484375,639.140625)"/>
</svg>
